<svg width="20" height="20" viewBox="0 0 20 20" fill="none" xmlns="http://www.w3.org/2000/svg">
<path d="M10 0C4.48625 0 0 4.48625 0 10C0 15.5137 4.48625 20 10 20C15.5137 20 20 15.5137 20 10C20 4.48625 15.5137 0 10 0ZM6.25 8.75C6.25 6.68187 7.93187 5 10 5C12.0681 5 13.75 6.68187 13.75 8.75V10C13.75 12.0681 12.0681 13.75 10 13.75C7.93187 13.75 6.25 12.0681 6.25 10V8.75ZM10 18.75C8.17937 18.75 6.4875 18.19 5.08563 17.2344C6 16.2475 7.30188 15.625 8.75 15.625H11.25C12.6981 15.625 14 16.2475 14.9144 17.2344C13.5125 18.19 11.8206 18.75 10 18.75Z" fill="#232734"/>
</svg>
